<?xml version="1.0" encoding="utf-8"?>
<!-- Generator: Adobe Illustrator 19.0.0, SVG Export Plug-In . SVG Version: 6.00 Build 0)  -->
<svg version="1.1" id="Capa_1" xmlns="http://www.w3.org/2000/svg" xmlns:xlink="http://www.w3.org/1999/xlink" x="0px" y="0px"
	 viewBox="-275 399.2 43.3 42.7" style="enable-background:new -275 399.2 43.3 42.7;" xml:space="preserve">
<style type="text/css">
	.st0{fill:none;}
	.st1{fill:#211915;}
</style>
<g>
	<path class="st0" d="M-254.6,431.3c2.6,0.4,5.1-0.3,7.2-1.8c2.1-1.6,3.4-3.9,3.8-6.4c0-0.3,0.1-0.7,0.1-1.1c0,0,0-0.1,0-0.2h-19.4
		c0,0.1,0,0.1,0,0.2C-262.8,426.6-259.3,430.6-254.6,431.3z"/>
	<path class="st1" d="M-231.6,418.1c-0.1-1-0.9-1.6-1.9-1.7c-0.2,0-0.4,0-0.7,0c0-0.5-0.1-1-0.2-1.4c-0.9-5-3.4-9-7.4-12.1
		c-0.1-0.1-0.5-0.5-1-0.2c-0.5,0.2-0.4,0.7-0.4,1v2.9c0,1.4,0,2.7,0,4.1c0,0.6-0.5,1.2-1.1,1.3c-0.9,0.1-1.5-0.3-1.7-1
		c0-0.2,0-0.4,0-0.7v-1.4c0-2.5,0-4.9,0-7.4c0-0.7-0.3-1.1-1-1.3c-1.2-0.4-2.5-0.8-3.9-0.9c-0.4,0-0.7-0.1-1,0.2
		c-0.3,0.2-0.3,0.5-0.3,0.9v2.6c0,3.5,0,7,0,10.6c0,0.9-0.6,1.5-1.4,1.6c-0.4,0-0.7-0.1-1-0.4s-0.5-0.7-0.5-1.2V404v-1.4v-2.3
		c0-0.2,0-0.5-0.3-0.8c-0.2-0.2-0.4-0.2-0.8-0.2c-1.4,0.2-2.7,0.5-3.9,0.9c-1,0.3-1.1,0.5-1.1,1.6v8.9c0,0.6-0.3,1-0.9,1.3
		c-0.5,0.2-1.1,0.1-1.5-0.3c-0.3-0.3-0.4-0.6-0.4-1.1c0-2.3,0-4.6,0-6.9c0-0.2,0-0.7-0.4-0.9c-0.4-0.2-0.8,0.1-0.9,0.2
		c-1.3,1-2.4,2-3.3,3.2c-2.3,2.9-3.7,6.3-4.1,10c0,0.1,0,0.2,0,0.3c-0.1,0-0.2,0-0.4,0c-1.3,0.1-2,0.8-2.1,2.2c0,0.3,0,0.6,0,0.9
		c0,1.2,0.6,1.9,1.6,2.1c0,0.1,0,0.1,0,0.2c0,0.2,0,0.4,0,0.7c0,0.7,0.1,1.4,0.2,2.1c0.2,0.9,1,1.5,1.9,1.5c0.3,0,0.7,0,1,0
		c0.7,0,1.1,0.3,1.3,0.9c0.1,0.3,0.3,0.7,0.4,1c0.2,0.4,0.4,0.9,0.5,1.3c0.2,0.5,0.1,0.9-0.3,1.3c-0.1,0.1-0.2,0.2-0.3,0.3
		c-0.2,0.2-0.3,0.3-0.5,0.5c-0.7,0.8-0.7,1.9,0.1,2.7c1.1,1.1,2.2,2.1,3.2,3.2c0.8,0.8,2,0.8,2.8,0c0.1-0.1,0.3-0.3,0.4-0.4
		c0.1-0.1,0.3-0.3,0.4-0.4c0.4-0.4,0.8-0.4,1.3-0.3c0.8,0.3,1.6,0.6,2.4,1c0.5,0.2,0.8,0.6,0.8,1.2c0,0.2,0,0.4,0,0.6
		c0,0.1,0,0.3,0,0.4c0,1.1,0.8,1.9,1.9,2.1h0.2c0.5,0.1,1,0.1,1.6,0.1c0.2,0,0.4,0,0.6,0c0.8,0,1.7-0.1,2.5-0.2
		c1-0.2,1.6-0.8,1.7-1.8c0-0.3,0-0.6,0-0.9v-0.3c0-0.7,0.2-1,0.9-1.3c0.2-0.1,0.3-0.1,0.5-0.2c0.4-0.1,0.7-0.3,1.1-0.5
		c1.1-0.6,1.9-0.4,2.7,0.5c0.5,0.6,1.1,0.8,1.5,0.8c0.5,0,1.1-0.2,1.6-0.7c1-1,2.1-2.1,3.1-3.1c0.8-0.8,0.8-1.9,0.1-2.7
		c-0.2-0.2-0.4-0.4-0.6-0.6l-0.2-0.2c-0.4-0.4-0.5-0.8-0.3-1.3c0.3-0.7,0.6-1.5,1-2.5c0.2-0.5,0.6-0.8,1.2-0.8c0.2,0,0.4,0,0.6,0
		c0.2,0,0.3,0,0.5,0c1,0,1.8-0.7,2-1.7c0.1-0.8,0.2-1.6,0.2-2.3c0-0.1,0-0.2,0-0.4c0.9-0.2,1.4-0.8,1.6-1.8
		C-231.5,419.3-231.5,418.7-231.6,418.1z M-234.2,421.9c0,0.7-0.1,1.4-0.2,2.1c-0.1,0.5-0.4,0.8-1,0.8c-0.2,0-0.3,0-0.5,0
		s-0.4,0-0.6,0c-1,0-1.7,0.5-2.1,1.4c-0.4,1-0.8,1.8-1,2.5c-0.3,0.9-0.2,1.8,0.5,2.5l0.2,0.2c0.2,0.2,0.4,0.4,0.6,0.6
		c0.4,0.4,0.4,0.9,0,1.3c-1,1-2,2.1-3.1,3.1c-0.2,0.2-0.5,0.4-0.8,0.4c-0.2,0-0.5-0.1-0.7-0.4c-1.1-1.4-2.5-1.6-4-0.8
		c-0.3,0.2-0.6,0.3-1,0.4c-0.2,0.1-0.3,0.1-0.5,0.2c-1,0.4-1.5,1.1-1.5,2.3v0.3c0,0.3,0,0.5,0,0.8c-0.1,0.5-0.3,0.8-0.8,0.9
		c-1,0.2-2,0.2-2.9,0.2c-0.5,0-1-0.1-1.5-0.1h-0.2c-0.6-0.1-0.9-0.4-0.9-1v-0.4c0-0.2,0-0.4,0-0.6c0-1-0.5-1.7-1.5-2.1
		c-0.8-0.3-1.6-0.7-2.5-1c-0.3-0.1-0.6-0.2-0.9-0.2c-0.6,0-1.1,0.2-1.5,0.6c-0.2,0.1-0.3,0.3-0.4,0.4s-0.2,0.2-0.4,0.4
		c-0.4,0.4-0.9,0.4-1.3,0c-1.1-1.1-2.2-2.1-3.2-3.2c-0.4-0.4-0.4-0.9,0-1.3c0.1-0.2,0.3-0.3,0.4-0.4c0.1-0.1,0.2-0.2,0.4-0.4
		c0.7-0.7,0.8-1.6,0.5-2.4c-0.2-0.4-0.4-0.9-0.5-1.3c-0.1-0.3-0.3-0.7-0.4-1c-0.4-1-1.3-1.5-2.4-1.6c-0.3,0-0.6,0-0.9,0
		c-0.5,0-0.8-0.3-0.9-0.7c-0.1-0.6-0.2-1.2-0.2-1.9c0-0.2,0-0.3,0-0.5h3.1h0.5h1.6c1,0,2,0,3,0l0,0c0.1,5.2,4,9.6,9.2,10.4
		c2.8,0.4,5.7-0.3,8-2.1c2.3-1.8,3.8-4.3,4.2-7.1c0-0.3,0.1-0.7,0.1-1.2c0.9,0,1.7,0,2.6,0h1.2h1.4
		C-236.3,421.9-235.2,421.9-234.2,421.9L-234.2,421.9L-234.2,421.9z M-262.9,421.7h19.4c0,0.1,0,0.2,0,0.2c0,0.4,0,0.8-0.1,1.1
		c-0.3,2.6-1.7,4.8-3.8,6.4s-4.7,2.2-7.2,1.8c-4.7-0.7-8.1-4.7-8.3-9.4C-262.9,421.8-262.9,421.7-262.9,421.7z M-233.8,420.6
		c-1.3,0-2.6,0-3.9,0h-35c-0.8,0-1.1-0.3-1.2-1.1c0-0.3,0-0.5,0-0.9c0-0.7,0.3-1,1-1.1c1.1-0.1,1.3-0.3,1.4-1.3
		c0.4-3.5,1.7-6.6,3.9-9.4c0.8-1,1.7-1.9,2.8-2.8c0,2.1,0,4.3,0,6.4c0,0.8,0.2,1.4,0.7,1.9c0.7,0.7,1.8,0.9,2.7,0.5
		c1-0.4,1.5-1.2,1.5-2.3v-8.9c0-0.2,0-0.4,0-0.4c0.1,0,0.3-0.1,0.4-0.2c1-0.4,2.2-0.6,3.5-0.8v13.2c0,0.7,0.3,1.4,0.8,1.9
		s1.1,0.7,1.7,0.7c1.4,0,2.5-1.1,2.5-2.6c0-3.5,0-7,0-10.6v-2.6l0,0l0,0c1.3,0.1,2.5,0.5,3.6,0.9c0.2,0.1,0.2,0.1,0.2,0.3
		c0,2.5,0,4.9,0,7.4v1.5c0,0.3,0,0.6,0.1,0.9c0.3,1.2,1.4,2,2.8,1.8c1.1-0.1,2.1-1.2,2.1-2.4c0-1.4,0-2.7,0-4.1V404
		c3.6,2.8,5.8,6.6,6.6,11.2c0.1,0.5,0.1,0.9,0.2,1.4c0,0.6,0.4,0.9,1,0.9c0.2,0,0.4,0,0.7,0c0.5,0,0.8,0.3,0.9,0.7
		c0.1,0.5,0.1,1,0,1.5C-232.7,420.2-232.9,420.6-233.8,420.6z"/>
</g>
</svg>
